<svg width="48" height="48" viewBox="0 0 48 48" fill="none" xmlns="http://www.w3.org/2000/svg">
<path d="M34.1652 22.5483C35.8986 21.0968 37.0009 18.9165 37.0009 16.4787C37.0009 14.0411 35.8986 11.8608 34.1652 10.4093C34.3638 10.3131 34.555 10.2087 34.7371 10.0955C35.8869 9.38064 37.244 8.96777 38.6976 8.96777C42.846 8.96777 46.2089 12.3306 46.2089 16.4787C46.2089 20.627 42.846 23.9898 38.6976 23.9898C37.244 23.9898 35.8869 23.5769 34.7371 22.8621C34.555 22.7489 34.3638 22.6445 34.1652 22.5483Z" fill="url(#paint0_linear_520_116)"/>
<path d="M32.079 17.6614C32.8544 15.5377 32.7189 13.0984 31.4999 10.9873C30.281 8.87614 28.2361 7.53912 26.0092 7.14873C26.1331 6.96614 26.2464 6.78012 26.3475 6.59107C26.9858 5.3971 27.9547 4.361 29.2135 3.63425C32.8062 1.56014 37.4001 2.79101 39.4742 6.38347C41.5484 9.97595 40.3175 14.5697 36.7248 16.6437C35.4661 17.3705 34.0843 17.6914 32.7311 17.6473C32.5169 17.6402 32.299 17.6455 32.079 17.6614Z" fill="url(#paint1_linear_520_116)"/>
<path d="M27.8282 14.4721C27.4378 12.2452 26.1007 10.2004 23.9895 8.98154C21.8783 7.76267 19.4389 7.62718 17.3151 8.40254C17.3312 8.18244 17.3363 7.96467 17.3292 7.75043C17.2851 6.39725 17.6061 5.01555 18.3328 3.75676C20.4071 0.164299 25.0009 -1.06657 28.5936 1.00754C32.1861 3.08165 33.4171 7.67533 31.3428 11.2678C30.6161 12.5266 29.58 13.4954 28.3859 14.1337C28.1969 14.2348 28.0109 14.3481 27.8282 14.4721Z" fill="url(#paint2_linear_520_116)"/>
<path d="M22.552 13.8353C21.1004 12.1019 18.92 10.9996 16.4821 10.9996C14.0443 10.9996 11.864 12.1019 10.4124 13.8353C10.3162 13.6366 10.2118 13.4455 10.0986 13.2633C9.38371 12.1136 8.97083 10.7566 8.97083 9.30303C8.97083 5.1548 12.3338 1.79199 16.4821 1.79199C20.6306 1.79199 23.9935 5.1548 23.9935 9.30303C23.9935 10.7566 23.5806 12.1136 22.8657 13.2633C22.7524 13.4455 22.648 13.6366 22.552 13.8353Z" fill="url(#paint3_linear_520_116)"/>
<path d="M17.6636 15.9214C15.5397 15.1461 13.1003 15.2816 10.9891 16.5003C8.87786 17.7192 7.54079 19.764 7.1504 21.9909C6.96779 21.8669 6.78176 21.7536 6.5927 21.6525C5.39868 21.0142 4.36254 20.0454 3.63576 18.7866C1.56156 15.1941 2.79247 10.6005 6.38509 8.52635C9.9777 6.45222 14.5715 7.68309 16.6458 11.2756C17.3726 12.5343 17.6936 13.9161 17.6493 15.2692C17.6423 15.4834 17.6475 15.7012 17.6636 15.9214Z" fill="url(#paint4_linear_520_116)"/>
<path d="M14.4727 20.1722C12.2457 20.5626 10.2008 21.8996 8.98194 24.0108C7.76303 26.1219 7.62753 28.5612 8.40293 30.685C8.1828 30.6688 7.96499 30.6637 7.75072 30.6707C6.3975 30.7149 5.01574 30.394 3.75692 29.6672C0.164305 27.593 -1.06661 22.9994 1.00758 19.4069C3.08177 15.8145 7.67562 14.5835 11.2682 16.6577C12.5271 17.3845 13.4959 18.4205 14.1343 19.6144C14.2353 19.8035 14.3487 19.9895 14.4727 20.1722Z" fill="url(#paint5_linear_520_116)"/>
<path d="M13.8348 25.4486C12.1013 26.9002 10.999 29.0805 10.999 31.5181C10.999 33.9559 12.1013 36.1361 13.8348 37.5877C13.6361 37.6838 13.4449 37.7883 13.2628 37.9014C12.113 38.6163 10.7559 39.0291 9.30233 39.0291C5.15395 39.0291 1.79102 35.6664 1.79102 31.5181C1.79102 27.3699 5.15395 24.0071 9.30233 24.0071C10.7559 24.0071 12.113 24.4199 13.2628 25.1349C13.4449 25.248 13.6361 25.3524 13.8348 25.4486Z" fill="url(#paint6_linear_520_116)"/>
<path d="M15.9204 30.3369C15.1449 32.4607 15.2804 34.9 16.4993 37.0111C17.7183 39.1224 19.7631 40.4593 21.9901 40.8496C21.8661 41.0323 21.7528 41.2184 21.6518 41.4074C21.0134 42.6013 20.0445 43.6374 18.7857 44.3641C15.1931 46.4383 10.5992 45.2074 8.52504 41.615C6.45084 38.0224 7.68177 33.4288 11.2744 31.3546C12.5332 30.6279 13.915 30.3069 15.2682 30.3512C15.4824 30.3582 15.7002 30.353 15.9204 30.3369Z" fill="url(#paint7_linear_520_116)"/>
<path d="M20.1712 33.5281C20.5616 35.755 21.8987 37.7997 24.0099 39.0185C26.1211 40.2374 28.5606 40.3729 30.6845 39.5975C30.6684 39.8177 30.6632 40.0354 30.6702 40.2497C30.7144 41.6029 30.3935 42.9846 29.6667 44.2433C27.5924 47.8359 22.9986 49.0667 19.406 46.9925C15.8133 44.9184 14.5824 40.3248 16.6567 36.7323C17.3835 35.4736 18.4196 34.5047 19.6135 33.8664C19.8026 33.7653 19.9886 33.6519 20.1712 33.5281Z" fill="url(#paint8_linear_520_116)"/>
<path d="M25.4478 34.1658C26.8994 35.8991 29.0798 37.0014 31.5177 37.0014C33.9555 37.0014 36.1359 35.8991 37.5875 34.1658C37.6836 34.3644 37.788 34.5556 37.9013 34.7376C38.6161 35.8873 39.029 37.2445 39.029 38.698C39.029 42.8463 35.6661 46.209 31.5177 46.209C27.3693 46.209 24.0063 42.8463 24.0063 38.698C24.0063 37.2445 24.4192 35.8873 25.1341 34.7376C25.2474 34.5556 25.3518 34.3644 25.4478 34.1658Z" fill="url(#paint9_linear_520_116)"/>
<path d="M30.3365 32.0802C32.4604 32.8555 34.8998 32.7201 37.011 31.5013C39.1222 30.2824 40.4593 28.2376 40.8497 26.0107C41.0322 26.1346 41.2183 26.248 41.4074 26.3491C42.6014 26.9874 43.6375 27.9562 44.3643 29.215C46.4386 32.8075 45.2076 37.4011 41.615 39.4753C38.0224 41.5494 33.4286 40.3185 31.3543 36.726C30.6275 35.4673 30.3066 34.0855 30.3507 32.7324C30.3578 32.5182 30.3527 32.3004 30.3365 32.0802Z" fill="url(#paint10_linear_520_116)"/>
<path d="M39.0226 23.9833C39.021 23.9859 39.0195 23.9886 39.018 23.9912C37.7992 26.1023 35.7543 27.4393 33.5273 27.8297C33.6512 28.0124 33.7646 28.1984 33.8657 28.3874C34.504 29.5814 35.4729 30.6175 36.7317 31.3442C40.3244 33.4184 44.9182 32.1875 46.9924 28.5951C48.7706 25.5151 48.1196 21.6993 45.6338 19.3662C44.5418 21.9868 42.0077 23.8561 39.0226 23.9833Z" fill="url(#paint11_linear_520_116)"/>
<defs>
<linearGradient id="paint0_linear_520_116" x1="35.1056" y1="8.96777" x2="35.1056" y2="23.9898" gradientUnits="userSpaceOnUse">
<stop stop-color="#25136D"/>
<stop offset="1" stop-color="#3D9BA2"/>
</linearGradient>
<linearGradient id="paint1_linear_520_116" x1="26.1029" y1="5.43014" x2="33.6137" y2="18.44" gradientUnits="userSpaceOnUse">
<stop stop-color="#25136D"/>
<stop offset="1" stop-color="#3D9BA2"/>
</linearGradient>
<linearGradient id="paint2_linear_520_116" x1="16.5369" y1="6.86736" x2="29.5467" y2="14.3788" gradientUnits="userSpaceOnUse">
<stop stop-color="#25136D"/>
<stop offset="1" stop-color="#3D9BA2"/>
</linearGradient>
<linearGradient id="paint3_linear_520_116" x1="8.97083" y1="12.8948" x2="23.9935" y2="12.8948" gradientUnits="userSpaceOnUse">
<stop stop-color="#25136D"/>
<stop offset="1" stop-color="#3D9BA2"/>
</linearGradient>
<linearGradient id="paint4_linear_520_116" x1="5.43174" y1="21.8972" x2="18.4415" y2="14.3857" gradientUnits="userSpaceOnUse">
<stop stop-color="#25136D"/>
<stop offset="1" stop-color="#3D9BA2"/>
</linearGradient>
<linearGradient id="paint5_linear_520_116" x1="6.86765" y1="31.4631" x2="14.3786" y2="18.4533" gradientUnits="userSpaceOnUse">
<stop stop-color="#25136D"/>
<stop offset="1" stop-color="#3D9BA2"/>
</linearGradient>
<linearGradient id="paint6_linear_520_116" x1="12.8943" y1="39.0291" x2="12.8943" y2="24.0071" gradientUnits="userSpaceOnUse">
<stop stop-color="#25136D"/>
<stop offset="1" stop-color="#3D9BA2"/>
</linearGradient>
<linearGradient id="paint7_linear_520_116" x1="21.8964" y1="42.5683" x2="14.3855" y2="29.5585" gradientUnits="userSpaceOnUse">
<stop stop-color="#25136D"/>
<stop offset="1" stop-color="#3D9BA2"/>
</linearGradient>
<linearGradient id="paint8_linear_520_116" x1="31.4626" y1="41.1328" x2="18.4529" y2="33.6212" gradientUnits="userSpaceOnUse">
<stop stop-color="#25136D"/>
<stop offset="1" stop-color="#3D9BA2"/>
</linearGradient>
<linearGradient id="paint9_linear_520_116" x1="39.029" y1="35.1062" x2="24.0063" y2="35.1062" gradientUnits="userSpaceOnUse">
<stop stop-color="#25136D"/>
<stop offset="1" stop-color="#3D9BA2"/>
</linearGradient>
<linearGradient id="paint10_linear_520_116" x1="42.5684" y1="26.1044" x2="29.5587" y2="33.6159" gradientUnits="userSpaceOnUse">
<stop stop-color="#25136D"/>
<stop offset="1" stop-color="#3D9BA2"/>
</linearGradient>
<linearGradient id="paint11_linear_520_116" x1="41.1324" y1="16.5389" x2="33.6215" y2="29.5486" gradientUnits="userSpaceOnUse">
<stop stop-color="#25136D"/>
<stop offset="1" stop-color="#3D9BA2"/>
</linearGradient>
</defs>
</svg>
